#!OML:ASF F:\VICON\USERDATA\INSTALL\rory3\rory3.ASF
:FULLY-SPECIFIED
:DEGREES
937
root 0.221988 16.1943 -0.935977 -160.4 -2.46704 183.062
lowerback -3.80684 1.79776 5.68781
upperback -5.71287 1.91553 0.261252
thorax -3.5926 0.555655 -2.88501
lowerneck -2.07944 5.40317 -0.639445
upperneck 47.1397 -6.28093 6.76669
head 18.5841 -5.07382 1.39481
rclavicle -8.94531e-016 3.97569e-016
rhumerus -107.705 -167.559 173.496
rradius 50.1444
rwrist -36.7421
rhand 12.4547 5.27262
rfingers 7.12502
rthumb 37.4506 -20.674
lclavicle -8.94531e-016 3.97569e-016
lhumerus 79.0561 22.224 19.8681
lradius 68.7302
lwrist 51.9555
lhand 5.91497 19.6224
lfingers 7.12502
lthumb 31.2423 46.9774
rfemur -30.1533 6.72707 32.7601
rtibia 40.4305
rfoot -36.2192 -28.0719
rtoes 10.3438
lfemur -76.7063 24.5176 -45.9879
ltibia 66.3802
lfoot 6.13485 14.347
ltoes -34.9646
938
root 0.252763 16.2007 -0.922597 -160.377 -2.1644 182.995
lowerback -3.83069 1.87614 5.28972
upperback -6.10224 1.98932 0.214373
thorax -3.98885 0.568777 -2.71291
lowerneck -1.85029 5.50794 -0.633754
upperneck 47.3187 -6.43039 6.96656
head 18.6765 -5.1806 1.45402
rclavicle 3.85145e-016 1.20265e-014
rhumerus -109.144 -167.803 174.7
rradius 51.9181
rwrist -31.3069
rhand 12.5612 4.82489
rfingers 7.12502
rthumb 37.5513 -21.095
lclavicle 3.85145e-016 1.20265e-014
lhumerus 77.3739 22.9623 17.9463
lradius 69.8128
lwrist 48.6324
lhand 3.83216 19.4256
lfingers 7.12502
lthumb 29.2554 47.1451
rfemur -30.1146 8.10356 32.5764
rtibia 40.258
rfoot -36.5787 -28.507
rtoes 12.4225
lfemur -77.9616 25.5203 -46.7418
ltibia 67.9576
lfoot 6.52833 15.4485
ltoes -29.9817
939
root 0.261469 16.2116 -0.909046 -160.46 -2.3099 183.071
lowerback -3.7776 1.84441 5.55886
upperback -6.37454 1.92164 0.10782
thorax -4.3015 0.492475 -2.97778
lowerneck -2.06714 5.56065 -0.464178
upperneck 47.4933 -6.45328 6.95314
head 18.8579 -5.18115 1.3997
rclavicle 2.16986e-014 7.25564e-015
rhumerus -110.666 -167.792 175.678
rradius 53.8397
rwrist -25.6857
rhand 12.7691 5.41078
rfingers 7.12502
rthumb 37.7477 -20.4566
lclavicle 2.16986e-014 7.25564e-015
lhumerus 75.7029 23.7762 16.0738
lradius 71.0834
lwrist 44.4106
lhand 1.87979 19.5678
lfingers 7.12502
lthumb 27.3896 47.5972
rfemur -30.0522 8.1374 32.6842
rtibia 40.0681
rfoot -36.1398 -28.6904
rtoes 13.2942
lfemur -78.8893 26.1363 -47.0942
ltibia 69.6009
lfoot 6.97782 15.621
ltoes -17.9287
940
root 0.278374 16.2315 -0.897067 -160.353 -2.27391 182.586
lowerback -4.02052 1.82979 5.15174
upperback -6.54804 1.86605 -0.180633
thorax -4.35271 0.462088 -3.04566
lowerneck -2.41804 5.55899 -0.122481
upperneck 47.5696 -6.3968 6.80441
head 18.99 -5.09572 1.26633
rclavicle -1.59463e-014 -2.6339e-015
rhumerus -112.456 -167.5 176.997
rradius 55.7845
rwrist -20.4441
rhand 12.7105 6.65825
rfingers 7.12502
rthumb 37.6924 -19.224
lclavicle -1.59463e-014 -2.6339e-015
lhumerus 74.3235 24.6922 14.6461
lradius 72.2884
lwrist 39.7536
lhand 0.4461 19.4171
lfingers 7.12502
lthumb 26.0176 47.6558
rfemur -30.1724 8.67663 32.1021
rtibia 39.9359
rfoot -36.2248 -29.0118
rtoes 14.7392
lfemur -79.7907 26.7346 -48.1081
ltibia 71.1368
lfoot 8.38872 16.2873
ltoes -16.7013
941
root 0.291758 16.2407 -0.882846 -160.222 -2.43591 182.815
lowerback -4.26664 1.9106 5.56954
upperback -6.8859 1.90624 -0.300928
thorax -4.55377 0.422922 -3.40021
lowerneck -2.22719 5.59856 0.013655
upperneck 47.6247 -6.54654 6.9769
head 19.0062 -5.15602 1.29439
rclavicle 1.92069e-014 7.00794e-015
rhumerus -114.539 -167.512 178.473
rradius 57.9356
rwrist -15.8516
rhand 12.6978 7.27221
rfingers 7.12502
rthumb 37.6804 -18.6133
lclavicle 1.92069e-014 7.00794e-015
lhumerus 73.0024 25.3036 13.655
lradius 73.484
lwrist 34.6451
lhand -0.259227 19.0694
lfingers 7.12502
lthumb 25.3421 47.4056
rfemur -30.213 8.9164 32.3599
rtibia 39.7579
rfoot -36.7633 -28.3605
rtoes 17.6561
lfemur -80.9732 27.23 -48.3284
ltibia 72.8997
lfoot 10.5345 16.7443
ltoes -17.3743
942
root 0.298882 16.2418 -0.872683 -160.057 -2.61474 183.172
lowerback -4.42575 1.97966 6.11698
upperback -7.26041 1.92966 -0.361254
thorax -4.84502 0.361028 -3.76751
lowerneck -2.43879 5.68723 -0.00734312
upperneck 47.9276 -6.758 7.24492
head 19.3258 -5.26266 1.37701
rclavicle -4.7025e-015 5.66536e-015
rhumerus -116.421 -167.565 179.329
rradius 60.3091
rwrist -11.9134
rhand 13.4386 6.91782
rfingers 7.12502
rthumb 38.38 -18.777
lclavicle -4.7025e-015 5.66536e-015
lhumerus 71.4638 25.8963 12.5981
lradius 74.5593
lwrist 29.0941
lhand -0.951171 18.1957
lfingers 7.12502
lthumb 24.679 46.6242
rfemur -30.4104 8.82465 32.7472
rtibia 39.6544
rfoot -36.5521 -28.1013
rtoes 18.5847
lfemur -82.1707 27.6404 -48.3679
ltibia 74.7326
lfoot 12.3324 17.7303
ltoes -21.5198
943
root 0.307186 16.2378 -0.867724 -159.914 -2.80621 183.248
lowerback -4.61605 1.98004 6.35308
upperback -7.68223 1.8528 -0.454807
thorax -5.18793 0.254441 -3.9956
lowerneck -2.3774 5.80601 0.0155206
upperneck 48.0473 -6.77812 7.43558
head 19.4154 -5.29287 1.45162
rclavicle 4.76773e-015 -1.58034e-014
rhumerus -118.083 -167.841 179.687
rradius 62.69
rwrist -8.32196
rhand 14.1703 6.33228
rfingers 7.12502
rthumb 39.0701 -19.1676
lclavicle 4.76773e-015 -1.58034e-014
lhumerus 69.4834 26.2753 11.1111
lradius 75.5504
lwrist 23.6354
lhand -2.52643 16.9289
lfingers 7.12502
lthumb 23.1684 45.5556
rfemur -30.6453 8.75218 32.8586
rtibia 39.5705
rfoot -36.1191 -28.5222
rtoes 17.3083
lfemur -83.1498 27.9606 -48.5097
ltibia 76.6096
lfoot 13.6001 19.3932
ltoes -19.9197
944
root 0.324253 16.2395 -0.863566 -159.702 -2.63064 182.882
lowerback -4.73757 2.02005 5.94098
upperback -8.17931 1.82715 -0.660965
thorax -5.65519 0.194383 -3.98001
lowerneck -2.25163 5.91604 0.197816
upperneck 48.1516 -6.70025 7.40427
head 19.4469 -5.27552 1.40397
rclavicle -5.59703e-015 2.78299e-015
rhumerus -119.825 -168.308 179.995
rradius 64.9556
rwrist -4.98803
rhand 13.9661 6.47279
rfingers 7.12502
rthumb 38.8775 -19.0822
lclavicle -5.59703e-015 2.78299e-015
lhumerus 67.2001 26.4646 9.492
lradius 76.8148
lwrist 18.9503
lhand -4.69547 15.7105
lfingers 7.12502
lthumb 21.086 44.584
rfemur -30.9317 8.80364 32.4554
rtibia 39.5399
rfoot -35.8231 -28.6638
rtoes 16.8691
lfemur -84.0051 28.3482 -49.0529
ltibia 78.3594
lfoot 13.2875 21.2896
ltoes -6.61968
945
root 0.343578 16.2415 -0.856795 -159.435 -2.2702 182.402
lowerback -4.9755 2.08759 5.28828
upperback -8.57963 1.83435 -0.860411
thorax -5.9557 0.178006 -3.81882
lowerneck -2.40256 6.01581 0.327458
upperneck 48.4037 -6.65563 7.307
head 19.6632 -5.27811 1.32321
rclavicle 1.76748e-014 3.8763e-015
rhumerus -121.766 -168.669 180.654
rradius 67.3615
rwrist -2.61882
rhand 12.8582 6.64873
rfingers 7.12502
rthumb 37.8319 -19.196
lclavicle 1.76748e-014 3.8763e-015
lhumerus 64.7224 26.7504 7.81411
lradius 78.2152
lwrist 15.0446
lhand -6.89779 14.8452
lfingers 7.12502
lthumb 18.9691 43.9402
rfemur -31.2538 8.9531 31.864
rtibia 39.5492
rfoot -36.0503 -28.1494
rtoes 18.9935
lfemur -84.8871 28.7419 -49.7373
ltibia 80.0203
lfoot 13.2468 24.5092
ltoes 4.53564
946
root 0.367115 16.241 -0.847459 -159.177 -2.12789 182.168
lowerback -5.32769 2.08641 4.86956
upperback -8.87695 1.75122 -0.945264
thorax -6.0902 0.119342 -3.66557
lowerneck -2.55403 6.08266 0.251624
upperneck 48.4948 -6.63702 7.41523
head 19.7824 -5.2933 1.3837
rclavicle 1.39802e-014 7.15625e-015
rhumerus -123.621 -168.945 181.079
rradius 69.7352
rwrist -0.794847
rhand 11.9836 6.57505
rfingers 7.12502
rthumb 37.0052 -19.4881
lclavicle 1.39802e-014 7.15625e-015
lhumerus 62.1268 27.1037 6.14454
lradius 79.7139
lwrist 11.637
lhand -8.32489 14.2071
lfingers 7.12502
lthumb 17.5962 43.4308
rfemur -31.5566 9.50601 31.5379
rtibia 39.5243
rfoot -36.5243 -28.0685
rtoes 20.5647
lfemur -85.8956 29.0516 -50.0912
ltibia 81.7187
lfoot 15.6084 27.3676
ltoes 11.3981
947
root 0.392185 16.2421 -0.840269 -158.998 -2.07643 182.063
lowerback -5.49009 2.0952 4.59034
upperback -9.27214 1.68047 -0.980479
thorax -6.43673 0.046795 -3.54293
lowerneck -2.49151 6.14446 0.2668
upperneck 48.5149 -6.4907 7.33712
head 19.7578 -5.26284 1.35902
rclavicle 9.3258e-015 4.57205e-015
rhumerus -125.584 -169.39 181.261
rradius 72.2139
rwrist 1.14964
rhand 11.1414 6.92899
rfingers 7.12502
rthumb 36.2081 -19.3361
lclavicle 9.3258e-015 4.57205e-015
lhumerus 59.63 27.1386 4.68367
lradius 81.356
lwrist 9.06557
lhand -9.22979 13.7576
lfingers 7.12502
lthumb 16.7252 43.0571
rfemur -31.7654 10.2513 31.3737
rtibia 39.4887
rfoot -36.7935 -28.7287
rtoes 20.2557
lfemur -86.7324 29.3487 -50.1405
ltibia 83.324
lfoot 18.3615 29.5913
ltoes 9.56438
948
root 0.39144 16.2379 -0.828872 -158.896 -2.48714 182.522
lowerback -5.50002 2.07833 5.40207
upperback -9.61447 1.58649 -0.946409
thorax -6.80129 -0.102681 -3.96188
lowerneck -3.03103 6.10504 0.0273996
upperneck 48.578 -6.49485 7.43339
head 19.9682 -5.28406 1.4405
rclavicle 8.33343e-015 -1.19271e-015
rhumerus -127.753 -169.81 181.43
rradius 74.7727
rwrist 3.02903
rhand 9.46817 7.58086
rfingers 7.12502
rthumb 34.6217 -19.0627
lclavicle 8.33343e-015 -1.19271e-015
lhumerus 56.881 27.0067 2.85966
lradius 83.1002
lwrist 7.02214
lhand -11.8205 13.8575
lfingers 7.12502
lthumb 14.23 43.35
rfemur -31.8819 9.54772 32.051
rtibia 39.4407
rfoot -36.4558 -28.54
rtoes 19.4631
lfemur -87.4386 29.3224 -49.4202
ltibia 84.9276
lfoot 22.7823 31.1022
ltoes 6.14448
949
root 0.399305 16.2427 -0.824581 -158.719 -2.46105 182.363
lowerback -5.91043 2.04711 5.28977
upperback -9.76879 1.46922 -1.03407
thorax -6.74816 -0.180874 -3.98296
lowerneck -4.17802 5.93544 -0.779474
upperneck 48.6742 -6.89124 8.05886
head 20.4848 -5.49243 1.82536
rclavicle 1.36385e-014 4.77083e-015
rhumerus -129.911 -170.015 181.49
rradius 77.3075
rwrist 4.66308
rhand 7.50047 8.13675
rfingers 7.12502
rthumb 32.7519 -18.9155
lclavicle 1.36385e-014 4.77083e-015
lhumerus 53.6815 26.8804 0.692235
lradius 84.8721
lwrist 4.84529
lhand -15.3149 14.3857
lfingers 7.12502
lthumb 10.8611 44.0848
rfemur -32.0423 9.36762 31.8828
rtibia 39.4202
rfoot -36.7747 -27.8687
rtoes 20.5444
lfemur -87.996 29.4582 -49.4538
ltibia 86.3594
lfoot 25.4977 33.8719
ltoes 7.93669
